<?xml version="1.0" encoding="iso-8859-1"?>
<!DOCTYPE svg PUBLIC "-//W3C//DTD SVG 1.1//EN" "http://www.w3.org/Graphics/SVG/1.1/DTD/svg11.dtd">
<svg 
 version="1.1" xmlns="http://www.w3.org/2000/svg" xmlns:xlink="http://www.w3.org/1999/xlink" x="0px" y="0px" width="512px"
	 height="512px" viewBox="0 0 512 512" enable-background="new 0 0 512 512" xml:space="preserve"
><g id="b75708d097f2188dff6617b0f00ed82e"><g></g><path display="inline" d="M492.087,443.802c16.882,16.882,11.28,32.849-12.442,35.482l-111.019,12.34
		c-23.724,2.641-40.98-14.616-38.341-38.34l12.328-111.024c2.64-23.724,18.607-29.324,35.482-12.449l27.12,27.126
		c16.222-25.764,25.68-56.184,25.68-88.814c0-92.309-75.101-167.409-167.409-167.409c-57.916,0-109.05,29.573-139.119,74.404H33.572
		C70.368,84.241,159.413,20.109,263.486,20.109c136.971,0,248.014,111.037,248.014,248.013c0,54.985-17.996,105.702-48.289,146.81
		L492.087,443.802z M82.666,233.524l25.813,173.609H71.973l-2.604-33.436H40.656l-2.918,33.436H0.5l23.021-173.609H82.666z
		 M69.339,353.122l-5.001-27.284l-8.689-57.716l-16.614,85H69.339z M169.967,233.524h-35.979v173.609h65.382v-24.825h-29.403
		V233.524z M265.073,233.524h-35.967v173.609h65.382v-24.825h-29.415V233.524z"></path></g></svg>