<?xml version="1.0" encoding="UTF-8" standalone="no"?>
<svg width="60px" height="60px" viewBox="0 0 60 60" version="1.1" xmlns="http://www.w3.org/2000/svg" xmlns:xlink="http://www.w3.org/1999/xlink" xmlns:sketch="http://www.bohemiancoding.com/sketch/ns">
    <!-- Generator: Sketch 3.2.2 (9983) - http://www.bohemiancoding.com/sketch -->
    <title>Water</title>
    <desc>Created with Sketch.</desc>
    <defs></defs>
    <g id="stroked" stroke="none" stroke-width="1" fill="none" fill-rule="evenodd" sketch:type="MSPage">
        <g id="Science" sketch:type="MSLayerGroup" transform="translate(-620.000000, -627.000000)" stroke="#000000" stroke-width="2" stroke-linecap="round" stroke-linejoin="round">
            <g id="Water" transform="translate(625.000000, 630.000000)" sketch:type="MSShapeGroup">
                <path d="M35,54 C44.3888407,54 52,46.3888407 52,37 C52,27.6111593 35,10.1336679 35,10.1336679 C35,10.1336679 18,27.6111593 18,37 C18,46.3888407 25.6111593,54 35,54 Z" id="Oval-147"></path>
                <path d="M10,23.2881543 C14.9844325,23.2881543 19.0251135,19.2474734 19.0251135,14.2630409 C19.0251135,9.27860835 10,0 10,0 C10,0 0.974886547,9.27860835 0.974886547,14.2630409 C0.974886547,19.2474734 5.01556747,23.2881543 10,23.2881543 Z" id="Oval-147"></path>
                <path d="M5,15 C5,17.209139 6.790861,19 9,19" id="Oval-149"></path>
                <path d="M24,37 C24,43.0751322 28.9248678,48 35,48" id="Oval-149"></path>
            </g>
        </g>
    </g>
</svg>